<svg width="61" height="60" viewBox="0 0 61 60" fill="none" xmlns="http://www.w3.org/2000/svg">
<g clip-path="url(#clip0_122_266)">
<path d="M31.8773 10.8V1.2C31.8773 0.48 31.2785 0 30.6797 0C29.9611 0 29.4821 0.6 29.4821 1.2V10.8C29.4821 11.52 30.0809 12 30.6797 12C31.2785 12 31.8773 11.4 31.8773 10.8Z" fill="#09C4C4"/>
<path d="M11.5178 24.24C11.7574 23.64 11.5178 22.92 10.919 22.56L2.17651 18.72C1.57771 18.48 0.859148 18.72 0.499866 19.32C0.260345 19.92 0.499866 20.64 1.09867 21L9.84118 24.84C10.5597 25.2 11.2783 24.96 11.5178 24.24Z" fill="#09C4C4"/>
<path d="M58.8234 18.84L50.0808 22.68C49.482 22.92 49.2425 23.64 49.482 24.36C49.7216 24.96 50.4401 25.2 51.1587 24.96L59.9012 21.12C60.5 20.88 60.7395 20.16 60.5 19.44C60.1407 18.84 59.4222 18.48 58.8234 18.84Z" fill="#09C4C4"/>
<path fill-rule="evenodd" clip-rule="evenodd" d="M30.9886 40.8C36.9533 40.8 41.7886 35.9646 41.7886 30C41.7886 24.0353 36.9533 19.2 30.9886 19.2C25.0239 19.2 20.1886 24.0353 20.1886 30C20.1886 35.9646 25.0239 40.8 30.9886 40.8ZM30.9886 44.4C38.9415 44.4 45.3886 37.9529 45.3886 30C45.3886 22.0471 38.9415 15.6 30.9886 15.6C23.0357 15.6 16.5886 22.0471 16.5886 30C16.5886 37.9529 23.0357 44.4 30.9886 44.4Z" fill="#131313"/>
<path fill-rule="evenodd" clip-rule="evenodd" d="M21.9886 49.2C21.9886 48.2059 22.7945 47.4 23.7886 47.4H38.7886C39.7828 47.4 40.5886 48.2059 40.5886 49.2C40.5886 50.1941 39.7828 51 38.7886 51H23.7886C22.7945 51 21.9886 50.1941 21.9886 49.2ZM21.9886 55.2C21.9886 54.2059 22.7945 53.4 23.7886 53.4H38.7886C39.7828 53.4 40.5886 54.2059 40.5886 55.2C40.5886 56.1941 39.7828 57 38.7886 57H23.7886C22.7945 57 21.9886 56.1941 21.9886 55.2Z" fill="#131313"/>
</g>
<defs>
<clipPath id="clip0_122_266">
<rect width="60" height="60" fill="white" transform="translate(0.5)"/>
</clipPath>
</defs>
</svg>
