<svg width="16" height="16" viewBox="0 0 16 16" fill="none" xmlns="http://www.w3.org/2000/svg">
<circle cx="8" cy="8" r="8" fill="white"/>
<path d="M12.4298 2.6388C11.2183 1.61629 9.65286 1 7.94346 1C7.05781 1 6.2108 1.16543 5.43164 1.46708V3.92526C6.16038 3.47057 7.02124 3.20784 7.94346 3.20784C9.04294 3.20784 10.0552 3.58127 10.8603 4.20822L12.4298 2.6388Z" fill="#131313"/>
<path d="M14.8767 7.35155H12.6565C12.5492 6.51179 12.2228 5.74053 11.7363 5.09696L13.3078 3.52551C14.183 4.58317 14.7514 5.90397 14.8767 7.35155Z" fill="#131313"/>
<path d="M14.874 8.59949H12.6525C12.54 9.43477 12.2105 10.2012 11.7227 10.8403L13.2934 12.411C14.1704 11.3582 14.7424 10.0425 14.874 8.59949Z" fill="#131313"/>
<path d="M8.59961 12.6662C9.43655 12.5506 10.2039 12.2171 10.8425 11.7247L12.4125 13.2948C11.3607 14.1767 10.0443 14.7534 8.59961 14.8884V12.6662Z" fill="#131313"/>
<path d="M3.20784 8.02342H3.20815C3.23545 10.4223 5.04045 12.3942 7.36754 12.6834V14.9029C3.80099 14.6025 1 11.6125 1 7.96825C1 5.96166 1.84921 4.15341 3.20784 2.8833V8.02342Z" fill="#131313"/>
<circle cx="7.94335" cy="7.94359" r="2.52782" fill="#09C4C4"/>
</svg>
