<svg width="189" height="48" viewBox="0 0 189 48" fill="none" xmlns="http://www.w3.org/2000/svg">
<path d="M72.281 15.7124C73.5062 15.7124 74.5686 15.883 75.4681 16.2242C76.3831 16.5499 77.0888 17.0229 77.585 17.6433C78.0813 18.2636 78.3295 18.9925 78.3295 19.83C78.3295 20.683 78.0736 21.4274 77.5618 22.0633C77.0655 22.6992 76.3831 23.1334 75.5146 23.366C76.5537 23.5677 77.3679 24.0407 77.9573 24.7851C78.5621 25.5295 78.8645 26.4291 78.8645 27.4837C78.8645 28.3987 78.6086 29.2052 78.0968 29.9031C77.585 30.5854 76.8561 31.1127 75.9101 31.485C74.964 31.8417 73.8552 32.02 72.5834 32.02H64.5343V15.7124H72.281ZM72.0484 22.2029C72.6377 22.2029 73.103 22.0633 73.4442 21.7841C73.7854 21.4895 73.956 21.0862 73.956 20.5744C73.956 20.0782 73.7854 19.6982 73.4442 19.4345C73.103 19.1554 72.6377 19.0236 72.0484 19.0391H68.7915V22.2029H72.0484ZM72.0484 28.7166C72.7928 28.7166 73.3821 28.5615 73.8164 28.2514C74.2506 27.9412 74.4678 27.5069 74.4678 26.9486C74.4678 26.4368 74.2506 26.0336 73.8164 25.7389C73.3821 25.4287 72.7928 25.2814 72.0484 25.2969H68.7915V28.7166H72.0484ZM81.303 14.7586H85.4439V32.02H81.303V14.7586ZM94.4054 19.2717C96.1424 19.2717 97.4916 19.6749 98.4532 20.4814C99.4147 21.2723 99.9033 22.389 99.9188 23.8313V32.02H95.8477V30.601C95.0102 31.6711 93.7462 32.2061 92.0558 32.2061C90.722 32.2061 89.6674 31.8494 88.8919 31.136C88.132 30.4071 87.752 29.4533 87.752 28.2746C87.752 27.0804 88.163 26.1499 88.985 25.483C89.8225 24.8161 91.0167 24.4749 92.5676 24.4594H95.8477V24.3198C95.8477 23.715 95.6383 23.2497 95.2196 22.924C94.8164 22.5984 94.227 22.4355 93.4516 22.4355C92.9243 22.4355 92.3272 22.5208 91.6603 22.6914C91.0089 22.862 90.3498 23.1102 89.6829 23.4358L88.543 20.6442C89.5666 20.179 90.5436 19.8378 91.4742 19.6206C92.4202 19.388 93.3973 19.2717 94.4054 19.2717ZM93.3352 29.3913C93.9556 29.3913 94.4984 29.2439 94.9637 28.9493C95.429 28.6391 95.7236 28.2436 95.8477 27.7628V26.6694H93.3818C92.2186 26.6694 91.637 27.1037 91.637 27.9722C91.637 28.4064 91.7844 28.7554 92.079 29.019C92.3892 29.2672 92.8079 29.3913 93.3352 29.3913ZM110.82 24.0174C110.23 23.1489 109.408 22.7147 108.354 22.7147C107.609 22.7147 107.004 23.0016 106.539 23.5754C106.074 24.1337 105.841 24.8627 105.841 25.7622C105.841 26.6772 106.074 27.4139 106.539 27.9722C107.004 28.5305 107.609 28.8097 108.354 28.8097C109.501 28.8097 110.323 28.3367 110.82 27.3906L113.867 29.1354C113.371 30.0969 112.626 30.8413 111.634 31.3686C110.641 31.8959 109.478 32.1596 108.144 32.1596C106.857 32.1596 105.725 31.8959 104.748 31.3686C103.771 30.8413 103.011 30.0969 102.468 29.1354C101.941 28.1738 101.677 27.0572 101.677 25.7854C101.677 24.4982 101.949 23.366 102.491 22.389C103.034 21.3964 103.794 20.6365 104.771 20.1092C105.764 19.5664 106.904 19.295 108.191 19.295C109.447 19.295 110.564 19.5586 111.541 20.0859C112.518 20.5977 113.278 21.3266 113.821 22.2727L110.82 24.0174ZM123.952 32.02L121.3 27.2743L120.021 28.6003V32.02H115.88V14.7586H120.021V23.6917L124.045 19.4345H128.745L124.138 24.2966L128.838 32.02H123.952ZM138.232 15.7124C139.457 15.7124 140.519 15.883 141.419 16.2242C142.334 16.5499 143.039 17.0229 143.536 17.6433C144.032 18.2636 144.28 18.9925 144.28 19.83C144.28 20.683 144.024 21.4274 143.512 22.0633C143.016 22.6992 142.334 23.1334 141.465 23.366C142.504 23.5677 143.319 24.0407 143.908 24.7851C144.513 25.5295 144.815 26.4291 144.815 27.4837C144.815 28.3987 144.559 29.2052 144.048 29.9031C143.536 30.5854 142.807 31.1127 141.861 31.485C140.915 31.8417 139.806 32.02 138.534 32.02H130.485V15.7124H138.232ZM137.999 22.2029C138.588 22.2029 139.054 22.0633 139.395 21.7841C139.736 21.4895 139.907 21.0862 139.907 20.5744C139.907 20.0782 139.736 19.6982 139.395 19.4345C139.054 19.1554 138.588 19.0236 137.999 19.0391H134.742V22.2029H137.999ZM137.999 28.7166C138.744 28.7166 139.333 28.5615 139.767 28.2514C140.201 27.9412 140.418 27.5069 140.418 26.9486C140.418 26.4368 140.201 26.0336 139.767 25.7389C139.333 25.4287 138.744 25.2814 137.999 25.2969H134.742V28.7166H137.999ZM159.42 19.4345V32.02H155.28V29.9728C154.427 31.4307 153.085 32.1751 151.255 32.2061C149.89 32.2061 148.797 31.7719 147.975 30.9034C147.168 30.0194 146.765 28.8484 146.765 27.3906V19.4345H150.906V26.2042C150.906 26.9176 151.084 27.4759 151.441 27.8791C151.813 28.2824 152.31 28.484 152.93 28.484C153.659 28.4685 154.233 28.2048 154.651 27.693C155.07 27.1657 155.28 26.4833 155.28 25.6459V19.4345H159.42ZM174.636 19.4345V30.9034C174.636 32.0665 174.349 33.0824 173.775 33.9509C173.202 34.8349 172.395 35.5095 171.356 35.9748C170.332 36.4556 169.146 36.696 167.797 36.696C166.742 36.696 165.726 36.5486 164.749 36.254C163.772 35.9593 162.911 35.5638 162.167 35.0675L163.609 32.2061C164.183 32.5938 164.803 32.8963 165.47 33.1134C166.137 33.3305 166.812 33.4391 167.494 33.4391C168.425 33.4391 169.161 33.222 169.704 32.7877C170.247 32.3535 170.519 31.7641 170.519 31.0197V29.6704C169.681 30.7716 168.487 31.3221 166.936 31.3221C165.897 31.3221 164.966 31.074 164.144 30.5777C163.338 30.0659 162.702 29.3525 162.237 28.4375C161.787 27.5069 161.562 26.4446 161.562 25.2504C161.562 24.0717 161.779 23.0326 162.214 22.1331C162.663 21.2336 163.291 20.5357 164.098 20.0394C164.904 19.5431 165.819 19.295 166.843 19.295C167.618 19.295 168.316 19.4423 168.937 19.737C169.572 20.0161 170.1 20.4271 170.519 20.9699V19.4345H174.636ZM167.983 28.2979C168.743 28.2979 169.355 28.0265 169.821 27.4837C170.286 26.9409 170.519 26.2352 170.519 25.3667C170.519 24.4827 170.286 23.7693 169.821 23.2265C169.355 22.6837 168.743 22.4123 167.983 22.4123C167.223 22.4123 166.603 22.6914 166.122 23.2497C165.656 23.7925 165.424 24.4982 165.424 25.3667C165.424 26.2352 165.656 26.9409 166.122 27.4837C166.603 28.0265 167.223 28.2979 167.983 28.2979ZM186.069 23.4126C184.44 22.5596 183.106 22.1331 182.067 22.1331C181.711 22.1331 181.424 22.2029 181.207 22.3425C180.989 22.4665 180.881 22.6604 180.881 22.924C180.881 23.2032 181.052 23.4281 181.393 23.5987C181.734 23.7693 182.277 23.9554 183.021 24.157C183.921 24.4207 184.665 24.6843 185.254 24.948C185.859 25.1961 186.379 25.5838 186.813 26.1111C187.247 26.6229 187.464 27.2976 187.464 28.135C187.464 29.4068 186.968 30.4071 185.976 31.136C184.999 31.8494 183.719 32.2061 182.137 32.2061C181.067 32.2061 180.043 32.0588 179.066 31.7641C178.089 31.4539 177.221 31.0042 176.461 30.4148L177.764 27.7396C178.477 28.2358 179.221 28.6236 179.997 28.9027C180.788 29.1664 181.532 29.2982 182.23 29.2982C182.633 29.2982 182.951 29.2362 183.184 29.1121C183.432 28.9725 183.556 28.7787 183.556 28.5305C183.556 28.2203 183.378 27.9799 183.021 27.8094C182.68 27.6388 182.137 27.4526 181.393 27.251C180.509 26.9874 179.78 26.7315 179.206 26.4833C178.632 26.2197 178.128 25.832 177.694 25.3202C177.275 24.8084 177.066 24.1415 177.066 23.3195C177.066 22.0478 177.546 21.0552 178.508 20.3418C179.47 19.6129 180.71 19.2484 182.23 19.2484C183.145 19.2484 184.045 19.3725 184.929 19.6206C185.828 19.8688 186.673 20.2333 187.464 20.714L186.069 23.4126Z" fill="white"/>
<path d="M39.3459 5.65457C35.1806 2.13896 29.7983 0.0200195 23.921 0.0200195C20.8759 0.0200195 17.9637 0.588815 15.2848 1.62595V10.0777C17.7903 8.51436 20.7502 7.61105 23.921 7.61105C27.7012 7.61105 31.1816 8.89499 33.9499 11.0506L39.3459 5.65457Z" fill="white"/>
<path d="M47.7592 21.8579H40.1257C39.757 18.9706 38.6346 16.3188 36.962 14.1061L42.365 8.70312C45.3742 12.3396 47.3285 16.8808 47.7592 21.8579Z" fill="white"/>
<path d="M47.7495 26.1484H40.1114C39.7248 29.0203 38.592 31.6556 36.9146 33.8528L42.3151 39.2534C45.3303 35.6336 47.2972 31.1099 47.7495 26.1484Z" fill="white"/>
<path d="M26.1764 40.131C29.054 39.7337 31.6923 38.5869 33.8879 36.894L39.2861 42.2923C35.6698 45.3245 31.1436 47.3072 26.1764 47.7716V40.131Z" fill="white"/>
<path d="M7.63876 24.1685H7.63984C7.73369 32.4165 13.9397 39.1962 21.9407 40.1904V47.8217C9.67812 46.7888 0.0477295 36.5084 0.0477295 23.9788C0.0477295 17.0797 2.9675 10.8625 7.63876 6.49561V24.1685Z" fill="white"/>
<circle cx="23.9209" cy="23.8933" r="8.69118" fill="#09C4C4"/>
</svg>
