<svg width="44" height="41" viewBox="0 0 44 41" fill="none" xmlns="http://www.w3.org/2000/svg">
<path d="M39.3262 6.74998H33.1762V5.21248C33.1762 3.98916 32.6902 2.81596 31.8252 1.95095C30.9602 1.08593 29.787 0.599976 28.5637 0.599976H16.2637C15.0404 0.599976 13.8672 1.08593 13.0021 1.95095C12.1371 2.81596 11.6512 3.98916 11.6512 5.21248V6.74998H5.50117C4.27786 6.74998 3.10465 7.23593 2.23964 8.10094C1.37463 8.96596 0.888672 10.1392 0.888672 11.3625V35.9625C0.888672 37.1858 1.37463 38.359 2.23964 39.224C3.10465 40.089 4.27786 40.575 5.50117 40.575H39.3262C40.5495 40.575 41.7227 40.089 42.5877 39.224C43.4527 38.359 43.9387 37.1858 43.9387 35.9625V11.3625C43.9387 10.1392 43.4527 8.96596 42.5877 8.10094C41.7227 7.23593 40.5495 6.74998 39.3262 6.74998ZM14.7262 5.21248C14.7262 4.80471 14.8882 4.41364 15.1765 4.1253C15.4648 3.83696 15.8559 3.67498 16.2637 3.67498H28.5637C28.9714 3.67498 29.3625 3.83696 29.6508 4.1253C29.9392 4.41364 30.1012 4.80471 30.1012 5.21248V6.74998H14.7262V5.21248ZM40.8637 17.9122L25.0428 22.7861C24.6862 22.89 24.3792 23.1196 24.1787 23.4323C23.9782 23.745 23.8977 24.1197 23.9521 24.4872C24.0065 24.8547 24.192 25.19 24.4745 25.4313C24.757 25.6726 25.1172 25.8034 25.4887 25.7996C25.6396 25.8029 25.7901 25.7821 25.9345 25.7381L40.8637 21.1379V35.9625C40.8637 36.3702 40.7017 36.7613 40.4133 37.0497C40.125 37.338 39.7339 37.5 39.3262 37.5H5.50117C5.0934 37.5 4.70233 37.338 4.414 37.0497C4.12566 36.7613 3.96367 36.3702 3.96367 35.9625V21.1379L18.8928 25.7381C19.2843 25.8564 19.7067 25.8143 20.0671 25.6211C20.4275 25.4279 20.6964 25.0994 20.8147 24.708C20.9329 24.3165 20.8908 23.8941 20.6976 23.5337C20.5045 23.1733 20.176 22.9044 19.7845 22.7861L3.96367 17.9122V11.3625C3.96367 10.9547 4.12566 10.5636 4.414 10.2753C4.70233 9.98696 5.0934 9.82498 5.50117 9.82498H39.3262C39.7339 9.82498 40.125 9.98696 40.4133 10.2753C40.7017 10.5636 40.8637 10.9547 40.8637 11.3625V17.9122Z" fill="#131313"/>
<path d="M22.4138 29.8124C21.1905 29.8124 20.0173 29.3265 19.1522 28.4615C18.2872 27.5964 17.8013 26.4232 17.8013 25.1999V20.5874C17.8013 20.1797 17.9633 19.7886 18.2516 19.5003C18.5399 19.2119 18.931 19.0499 19.3388 19.0499H25.4888C25.8965 19.0499 26.2876 19.2119 26.5759 19.5003C26.8643 19.7886 27.0263 20.1797 27.0263 20.5874V25.1999C27.0263 26.4232 26.5403 27.5964 25.6753 28.4615C24.8103 29.3265 23.6371 29.8124 22.4138 29.8124ZM20.8763 22.1249V25.1999C20.8763 25.6077 21.0383 25.9988 21.3266 26.2871C21.6149 26.5754 22.006 26.7374 22.4138 26.7374C22.8215 26.7374 23.2126 26.5754 23.5009 26.2871C23.7893 25.9988 23.9513 25.6077 23.9513 25.1999V22.1249H20.8763Z" fill="#09C4C4"/>
</svg>
