<svg width="34" height="43" viewBox="0 0 34 43" fill="none" xmlns="http://www.w3.org/2000/svg">
<path fill-rule="evenodd" clip-rule="evenodd" d="M8.63041 19.9932C9.33335 20.6961 9.33335 21.8358 8.63041 22.5387L5.61872 25.5504C4.83107 26.3381 4.38857 27.4064 4.38857 28.5203V34.3421C4.38857 36.6617 6.26898 38.5421 8.58857 38.5421H25.2028C27.5224 38.5421 29.4028 36.6617 29.4028 34.3421V28.5203C29.4028 27.4064 28.9603 26.3381 28.1727 25.5504L25.161 22.5387C24.4581 21.8358 24.4581 20.6961 25.161 19.9932C25.8639 19.2902 27.0036 19.2902 27.7066 19.9932L30.7183 23.0048C32.181 24.4676 33.0028 26.4516 33.0028 28.5203V34.3421C33.0028 38.6499 29.5107 42.1421 25.2028 42.1421H8.58857C4.28075 42.1421 0.788574 38.6499 0.788574 34.3421V28.5203C0.788574 26.4516 1.61036 24.4676 3.07314 23.0048L6.08483 19.9932C6.78777 19.2902 7.92747 19.2902 8.63041 19.9932Z" fill="#131313"/>
<path fill-rule="evenodd" clip-rule="evenodd" d="M16.8962 16.0761C20.1758 16.0761 22.8343 13.4176 22.8343 10.1381C22.8343 6.85855 20.1758 4.19998 16.8962 4.19998C13.6167 4.19998 10.9582 6.85855 10.9582 10.1381C10.9582 13.4176 13.6167 16.0761 16.8962 16.0761ZM16.8962 19.6761C22.164 19.6761 26.4343 15.4058 26.4343 10.1381C26.4343 4.87032 22.164 0.599976 16.8962 0.599976C11.6285 0.599976 7.35815 4.87032 7.35815 10.1381C7.35815 15.4058 11.6285 19.6761 16.8962 19.6761Z" fill="#09C4C4"/>
</svg>
