<svg width="205" height="55" viewBox="0 0 205 55" fill="none" xmlns="http://www.w3.org/2000/svg">
<path d="M44.3122 8.01159C39.8275 4.26074 34.0323 2.00002 27.7043 2.00002C24.4257 2.00002 21.2901 2.60687 18.4057 3.71341V12.7307C21.1034 11.0627 24.2903 10.099 27.7043 10.099C31.7745 10.099 35.5218 11.4688 38.5023 13.7686L44.3122 8.01159Z" fill="#292929"/>
<path d="M53.3708 25.2991H45.1518C44.7548 22.2187 43.5463 19.3895 41.7455 17.0287L47.5628 11.2642C50.8028 15.144 52.907 19.989 53.3708 25.2991Z" fill="#292929"/>
<path d="M53.3603 29.8769H45.1364C44.7201 32.9409 43.5005 35.7526 41.6943 38.0968L47.5091 43.8587C50.7556 39.9968 52.8733 35.1703 53.3603 29.8769Z" fill="#292929"/>
<path d="M30.1326 44.795C33.2309 44.3711 36.0715 43.1476 38.4355 41.3414L44.2478 47.1009C40.3541 50.336 35.4808 52.4514 30.1326 52.9468V44.795Z" fill="#292929"/>
<path d="M10.1732 27.7641H10.1744C10.2754 36.564 16.9574 43.7974 25.5721 44.8582V53C12.369 51.898 2 40.9298 2 27.5617C2 20.201 5.1437 13.5679 10.1732 8.90875V27.7641Z" fill="#292929"/>
<ellipse cx="27.7042" cy="27.4707" rx="9.35777" ry="9.27273" fill="#09C4C4"/>
<path d="M80.025 18.975C81.3417 18.975 82.4833 19.1583 83.45 19.525C84.4333 19.875 85.1917 20.3833 85.725 21.05C86.2583 21.7167 86.525 22.5 86.525 23.4C86.525 24.3167 86.25 25.1167 85.7 25.8C85.1667 26.4833 84.4333 26.95 83.5 27.2C84.6167 27.4167 85.4917 27.925 86.125 28.725C86.775 29.525 87.1 30.4917 87.1 31.625C87.1 32.6083 86.825 33.475 86.275 34.225C85.725 34.9583 84.9417 35.525 83.925 35.925C82.9083 36.3083 81.7167 36.5 80.35 36.5H71.7V18.975H80.025ZM79.775 25.95C80.4083 25.95 80.9083 25.8 81.275 25.5C81.6417 25.1833 81.825 24.75 81.825 24.2C81.825 23.6667 81.6417 23.2583 81.275 22.975C80.9083 22.675 80.4083 22.5333 79.775 22.55H76.275V25.95H79.775ZM79.775 32.95C80.575 32.95 81.2083 32.7833 81.675 32.45C82.1417 32.1167 82.375 31.65 82.375 31.05C82.375 30.5 82.1417 30.0667 81.675 29.75C81.2083 29.4167 80.575 29.2583 79.775 29.275H76.275V32.95H79.775ZM89.7205 17.95H94.1705V36.5H89.7205V17.95ZM103.801 22.8C105.668 22.8 107.118 23.2333 108.151 24.1C109.184 24.95 109.709 26.15 109.726 27.7V36.5H105.351V34.975C104.451 36.125 103.093 36.7 101.276 36.7C99.8426 36.7 98.7093 36.3167 97.876 35.55C97.0593 34.7667 96.651 33.7417 96.651 32.475C96.651 31.1917 97.0926 30.1917 97.976 29.475C98.876 28.7583 100.159 28.3917 101.826 28.375H105.351V28.225C105.351 27.575 105.126 27.075 104.676 26.725C104.243 26.375 103.609 26.2 102.776 26.2C102.209 26.2 101.568 26.2917 100.851 26.475C100.151 26.6583 99.4426 26.925 98.726 27.275L97.501 24.275C98.601 23.775 99.651 23.4083 100.651 23.175C101.668 22.925 102.718 22.8 103.801 22.8ZM102.651 33.675C103.318 33.675 103.901 33.5167 104.401 33.2C104.901 32.8667 105.218 32.4417 105.351 31.925V30.75H102.701C101.451 30.75 100.826 31.2167 100.826 32.15C100.826 32.6167 100.984 32.9917 101.301 33.275C101.634 33.5417 102.084 33.675 102.651 33.675ZM121.441 27.9C120.807 26.9667 119.924 26.5 118.791 26.5C117.991 26.5 117.341 26.8083 116.841 27.425C116.341 28.025 116.091 28.8083 116.091 29.775C116.091 30.7583 116.341 31.55 116.841 32.15C117.341 32.75 117.991 33.05 118.791 33.05C120.024 33.05 120.907 32.5417 121.441 31.525L124.716 33.4C124.182 34.4333 123.382 35.2333 122.316 35.8C121.249 36.3667 119.999 36.65 118.566 36.65C117.182 36.65 115.966 36.3667 114.916 35.8C113.866 35.2333 113.049 34.4333 112.466 33.4C111.899 32.3667 111.616 31.1667 111.616 29.8C111.616 28.4167 111.907 27.2 112.491 26.15C113.074 25.0833 113.891 24.2667 114.941 23.7C116.007 23.1167 117.232 22.825 118.616 22.825C119.966 22.825 121.166 23.1083 122.216 23.675C123.266 24.225 124.082 25.0083 124.666 26.025L121.441 27.9ZM135.554 36.5L132.704 31.4L131.329 32.825V36.5H126.879V17.95H131.329V27.55L135.654 22.975H140.704L135.754 28.2L140.804 36.5H135.554ZM150.899 18.975C152.216 18.975 153.357 19.1583 154.324 19.525C155.307 19.875 156.066 20.3833 156.599 21.05C157.132 21.7167 157.399 22.5 157.399 23.4C157.399 24.3167 157.124 25.1167 156.574 25.8C156.041 26.4833 155.307 26.95 154.374 27.2C155.491 27.4167 156.366 27.925 156.999 28.725C157.649 29.525 157.974 30.4917 157.974 31.625C157.974 32.6083 157.699 33.475 157.149 34.225C156.599 34.9583 155.816 35.525 154.799 35.925C153.782 36.3083 152.591 36.5 151.224 36.5H142.574V18.975H150.899ZM150.649 25.95C151.282 25.95 151.782 25.8 152.149 25.5C152.516 25.1833 152.699 24.75 152.699 24.2C152.699 23.6667 152.516 23.2583 152.149 22.975C151.782 22.675 151.282 22.5333 150.649 22.55H147.149V25.95H150.649ZM150.649 32.95C151.449 32.95 152.082 32.7833 152.549 32.45C153.016 32.1167 153.249 31.65 153.249 31.05C153.249 30.5 153.016 30.0667 152.549 29.75C152.082 29.4167 151.449 29.2583 150.649 29.275H147.149V32.95H150.649ZM173.67 22.975V36.5H169.22V34.3C168.303 35.8667 166.861 36.6667 164.895 36.7C163.428 36.7 162.253 36.2333 161.37 35.3C160.503 34.35 160.07 33.0917 160.07 31.525V22.975H164.52V30.25C164.52 31.0167 164.711 31.6167 165.095 32.05C165.495 32.4833 166.028 32.7 166.695 32.7C167.478 32.6833 168.095 32.4 168.545 31.85C168.995 31.2833 169.22 30.55 169.22 29.65V22.975H173.67ZM190.021 22.975V35.3C190.021 36.55 189.713 37.6417 189.096 38.575C188.479 39.525 187.613 40.25 186.496 40.75C185.396 41.2667 184.121 41.525 182.671 41.525C181.538 41.525 180.446 41.3667 179.396 41.05C178.346 40.7333 177.421 40.3083 176.621 39.775L178.171 36.7C178.788 37.1167 179.454 37.4417 180.171 37.675C180.888 37.9083 181.613 38.025 182.346 38.025C183.346 38.025 184.138 37.7917 184.721 37.325C185.304 36.8583 185.596 36.225 185.596 35.425V33.975C184.696 35.1583 183.413 35.75 181.746 35.75C180.629 35.75 179.629 35.4833 178.746 34.95C177.879 34.4 177.196 33.6333 176.696 32.65C176.213 31.65 175.971 30.5083 175.971 29.225C175.971 27.9583 176.204 26.8417 176.671 25.875C177.154 24.9083 177.829 24.1583 178.696 23.625C179.563 23.0917 180.546 22.825 181.646 22.825C182.479 22.825 183.229 22.9833 183.896 23.3C184.579 23.6 185.146 24.0417 185.596 24.625V22.975H190.021ZM182.871 32.5C183.688 32.5 184.346 32.2083 184.846 31.625C185.346 31.0417 185.596 30.2833 185.596 29.35C185.596 28.4 185.346 27.6333 184.846 27.05C184.346 26.4667 183.688 26.175 182.871 26.175C182.054 26.175 181.388 26.475 180.871 27.075C180.371 27.6583 180.121 28.4167 180.121 29.35C180.121 30.2833 180.371 31.0417 180.871 31.625C181.388 32.2083 182.054 32.5 182.871 32.5ZM202.307 27.25C200.557 26.3333 199.124 25.875 198.007 25.875C197.624 25.875 197.315 25.95 197.082 26.1C196.849 26.2333 196.732 26.4417 196.732 26.725C196.732 27.025 196.915 27.2667 197.282 27.45C197.649 27.6333 198.232 27.8333 199.032 28.05C199.999 28.3333 200.799 28.6167 201.432 28.9C202.082 29.1667 202.64 29.5833 203.107 30.15C203.574 30.7 203.807 31.425 203.807 32.325C203.807 33.6917 203.274 34.7667 202.207 35.55C201.157 36.3167 199.782 36.7 198.082 36.7C196.932 36.7 195.832 36.5417 194.782 36.225C193.732 35.8917 192.799 35.4083 191.982 34.775L193.382 31.9C194.149 32.4333 194.949 32.85 195.782 33.15C196.632 33.4333 197.432 33.575 198.182 33.575C198.615 33.575 198.957 33.5083 199.207 33.375C199.474 33.225 199.607 33.0167 199.607 32.75C199.607 32.4167 199.415 32.1583 199.032 31.975C198.665 31.7917 198.082 31.5917 197.282 31.375C196.332 31.0917 195.549 30.8167 194.932 30.55C194.315 30.2667 193.774 29.85 193.307 29.3C192.857 28.75 192.632 28.0333 192.632 27.15C192.632 25.7833 193.149 24.7167 194.182 23.95C195.215 23.1667 196.549 22.775 198.182 22.775C199.165 22.775 200.132 22.9083 201.082 23.175C202.049 23.4417 202.957 23.8333 203.807 24.35L202.307 27.25Z" fill="#292929"/>
</svg>
